<svg xmlns="http://www.w3.org/2000/svg" viewBox="0 0 16.04 16"><defs><style>.cls-1{fill:#dddcdc;}</style></defs><title>icon-phone-grayAsset 5</title><g id="Layer_2" data-name="Layer 2"><g id="wireframe"><path class="cls-1" d="M15.68,12.66,13.2,10.18a1.29,1.29,0,0,0-1.82,0l-1.25,1.25-.24-.14a12.19,12.19,0,0,1-3-2.17,12.93,12.93,0,0,1-2.17-3l-.13-.24.83-.84.41-.41a1.28,1.28,0,0,0,0-1.82L3.38.36a1.29,1.29,0,0,0-1.82,0l-.7.71h0a4.06,4.06,0,0,0-.57,1,4,4,0,0,0-.26,1C-.28,5.87,1,8.35,4.32,11.71,9,16.36,12.72,16,12.88,16a4.21,4.21,0,0,0,1-.26,4.33,4.33,0,0,0,1-.57h0l.7-.69A1.29,1.29,0,0,0,15.68,12.66Z"/></g></g></svg>